<svg width="182" height="48" viewBox="0 0 182 48" fill="none" xmlns="http://www.w3.org/2000/svg">
<path d="M31.824 0.855999L26.256 15.064C26.256 15.064 19.856 8.664 12.496 8.792C0.72 9.048 2.896 20.184 8.4 30.232C11.472 35.736 16.784 38.488 21.904 38.488C26.192 38.488 30.352 36.568 32.976 32.664C32.976 32.664 32.848 46.872 21.264 46.872C9.68 46.872 0.336 30.232 3.728 13.912C4.688 9.304 6.8 0.855999 17.296 0.855999C24.912 0.855999 29.008 4.184 29.008 4.184L31.824 0.855999ZM50.911 1.112C60.895 1.112 68.959 11.416 68.959 24.152C68.959 36.824 60.895 47.128 50.911 47.128C40.927 47.128 32.863 36.824 32.863 24.152C32.863 11.416 40.927 1.112 50.911 1.112ZM57.183 45.016C62.431 43.416 63.967 32.792 60.511 21.272C57.375 10.712 51.103 3.032 46.047 3.032C45.535 3.032 45.087 3.096 44.639 3.224C39.327 4.824 37.855 15.448 41.311 27.032C44.447 37.592 50.719 45.208 55.775 45.208C56.287 45.208 56.735 45.144 57.183 45.016ZM100.37 33.048C101.33 38.232 99.346 42.136 97.234 44.376C95.25 46.488 92.306 47.128 89.49 47.128C79.954 47.128 68.37 36.184 68.37 36.184L74.258 27.992C76.434 33.624 90.322 44.696 95.186 44.696C96.082 44.696 96.658 44.376 96.85 43.544C97.298 41.688 96.658 39.832 95.314 37.976C92.754 34.456 87.506 30.936 81.17 27.48C74.45 23.896 73.234 17.432 73.426 12.888C73.49 10.84 73.874 9.112 74.194 8.28C75.986 4.568 79.25 1.112 85.97 1.112C93.586 1.112 97.618 4.504 97.618 4.504L100.434 1.112L94.93 15.384C94.93 15.384 88.53 8.92 81.17 9.112C78.354 9.176 75.986 9.816 74.578 10.968C74.322 11.16 74.194 11.544 74.322 11.864C75.026 14.168 77.33 16.92 81.554 18.904C87.954 21.912 99.154 26.2 100.37 33.048ZM143.866 0.855999C140.41 15.448 140.73 30.872 143.866 46.872H128.89C133.946 29.144 132.602 14.296 133.37 7.704C129.658 24.792 119.93 42.2 119.93 42.2C115.45 26.392 103.226 7.704 103.226 7.704C103.354 9.304 103.546 10.968 103.93 12.568C106.49 25.496 115.642 44.696 116.666 46.68V46.808L116.73 46.872H101.69C104.378 31.64 104.25 16.024 101.434 0.855999H107.77C108.73 3.608 111.674 7.768 114.81 11.672C119.418 17.496 124.474 22.872 124.474 22.872C134.138 9.752 133.498 0.855999 133.498 0.855999H143.866ZM162.437 1.112C172.421 1.112 180.485 11.416 180.485 24.152C180.485 36.824 172.421 47.128 162.437 47.128C152.453 47.128 144.389 36.824 144.389 24.152C144.389 11.416 152.453 1.112 162.437 1.112ZM168.709 45.016C173.957 43.416 175.493 32.792 172.037 21.272C168.901 10.712 162.629 3.032 157.573 3.032C157.061 3.032 156.613 3.096 156.165 3.224C150.853 4.824 149.381 15.448 152.837 27.032C155.973 37.592 162.245 45.208 167.301 45.208C167.813 45.208 168.261 45.144 168.709 45.016Z" fill="url(#paint0_linear_7_111)"/>
<path d="M161.048 20.7333L166.082 23.2655L164.716 28.732L159.683 26.1998L161.048 20.7333Z" fill="#4788FF"/>
<defs>
<linearGradient id="paint0_linear_7_111" x1="64.8448" y1="-12.6562" x2="123.181" y2="69.2832" gradientUnits="userSpaceOnUse">
<stop stop-color="#9718FF"/>
<stop offset="0.5" stop-color="#FF5FEF"/>
<stop offset="1" stop-color="#4788FF"/>
</linearGradient>
</defs>
</svg>
